<svg width="33" height="33" viewBox="0 0 33 33" fill="none" xmlns="http://www.w3.org/2000/svg">
<path d="M7.19992 22.669L6.20003 22.654L6.19535 22.9643L6.36721 23.2227L7.19992 22.669ZM25.7999 22.669L26.6326 23.2227L26.8045 22.9643L26.7998 22.654L25.7999 22.669ZM16.5 0C7.39172 0 0 7.39172 0 16.5H2C2 8.49628 8.49628 2 16.5 2V0ZM0 16.5C0 25.6083 7.39172 33 16.5 33V31C8.49628 31 2 24.5037 2 16.5H0ZM16.5 33C25.6083 33 33 25.6083 33 16.5H31C31 24.5037 24.5037 31 16.5 31V33ZM33 16.5C33 7.39172 25.6083 0 16.5 0V2C24.5037 2 31 8.49628 31 16.5H33ZM16.5002 6.64999C18.5209 6.64999 20.1502 8.27927 20.1502 10.3H22.1502C22.1502 7.17471 19.6254 4.64999 16.5002 4.64999V6.64999ZM20.1502 10.3C20.1502 12.3207 18.5209 13.95 16.5002 13.95V15.95C19.6254 15.95 22.1502 13.4253 22.1502 10.3H20.1502ZM16.5002 13.95C14.4794 13.95 12.8502 12.3207 12.8502 10.3H10.8502C10.8502 13.4253 13.3749 15.95 16.5002 15.95V13.95ZM12.8502 10.3C12.8502 8.27927 14.4794 6.64999 16.5002 6.64999V4.64999C13.3749 4.64999 10.8502 7.17471 10.8502 10.3H12.8502ZM16.4999 26.66C12.9738 26.66 9.8547 24.8555 8.03263 22.1153L6.36721 23.2227C8.54413 26.4966 12.276 28.66 16.4999 28.66V26.66ZM8.1998 22.6841C8.20601 22.2722 8.41154 21.8285 8.92052 21.3515C9.43373 20.8705 10.1861 20.4262 11.0907 20.0479C12.904 19.2895 15.0864 18.895 16.4999 18.895V16.895C14.8134 16.895 12.3691 17.3453 10.319 18.2028C9.29189 18.6324 8.30345 19.1888 7.55292 19.8922C6.79817 20.5995 6.21707 21.5236 6.20003 22.654L8.1998 22.6841ZM16.4999 18.895C17.9053 18.895 20.0879 19.2894 21.9036 20.048C22.8094 20.4265 23.5634 20.871 24.0778 21.3521C24.5882 21.8295 24.7938 22.2731 24.8 22.6841L26.7998 22.654C26.7828 21.5228 26.1998 20.5984 25.444 19.8915C24.6923 19.1884 23.7026 18.6321 22.6747 18.2027C20.6231 17.3454 18.179 16.895 16.4999 16.895V18.895ZM24.9672 22.1153C23.1451 24.8555 20.026 26.66 16.4999 26.66V28.66C20.7238 28.66 24.4557 26.4966 26.6326 23.2227L24.9672 22.1153Z" fill="#CDD1E0"/>
</svg>
