<svg width="36" height="32" viewBox="0 0 36 32" fill="none" xmlns="http://www.w3.org/2000/svg">
<path d="M3 6.66667C3 5.95942 3.31607 5.28115 3.87868 4.78105C4.44129 4.28095 5.20435 4 6 4H15V28H6C5.20435 28 4.44129 27.719 3.87868 27.219C3.31607 26.7189 3 26.0406 3 25.3333V6.66667ZM21 4H30C30.7956 4 31.5587 4.28095 32.1213 4.78105C32.6839 5.28115 33 5.95942 33 6.66667V13.3333H21V4ZM21 18.6667H33V25.3333C33 26.0406 32.6839 26.7189 32.1213 27.219C31.5587 27.719 30.7956 28 30 28H21V18.6667Z" stroke="#0EA7FF" stroke-width="2.13512" stroke-linecap="round" stroke-linejoin="round"/>
</svg>
