<svg width="36" height="32" viewBox="0 0 36 32" fill="none" xmlns="http://www.w3.org/2000/svg">
<path d="M2.99976 6.66667C2.99976 5.95942 3.31583 5.28115 3.87844 4.78105C4.44104 4.28095 5.20411 4 5.99976 4H14.9998V28H5.99976C5.20411 28 4.44104 27.719 3.87844 27.219C3.31583 26.7189 2.99976 26.0406 2.99976 25.3333V6.66667ZM20.9998 4H29.9998C30.7954 4 31.5585 4.28095 32.1211 4.78105C32.6837 5.28115 32.9998 5.95942 32.9998 6.66667V13.3333H20.9998V4ZM20.9998 18.6667H32.9998V25.3333C32.9998 26.0406 32.6837 26.7189 32.1211 27.219C31.5585 27.719 30.7954 28 29.9998 28H20.9998V18.6667Z" stroke="#CDD1E0" stroke-width="2.13512" stroke-linecap="round" stroke-linejoin="round"/>
</svg>
