<svg width="46" height="46" viewBox="0 0 46 46" fill="none" xmlns="http://www.w3.org/2000/svg">
<path d="M14.3757 9.58329V9.58329C12.7034 9.58329 11.8672 9.58329 11.2278 9.90731C10.6587 10.1957 10.1964 10.6581 9.908 11.2272C9.58398 11.8665 9.58398 12.7027 9.58398 14.375V23C9.58398 26.3445 9.58398 28.0168 10.232 29.2956C10.8088 30.4338 11.7335 31.3584 12.8717 31.9353C14.1504 32.5833 15.8227 32.5833 19.1673 32.5833V32.5833M14.3757 9.58329C14.3757 10.6418 15.2338 11.5 16.2923 11.5C17.3509 11.5 18.209 10.6418 18.209 9.58329C18.209 8.52475 17.3509 7.66663 16.2923 7.66663C15.2338 7.66663 14.3757 8.52475 14.3757 9.58329ZM24.9173 9.58329C24.9173 10.6418 24.0592 11.5 23.0007 11.5C21.9421 11.5 21.084 10.6418 21.084 9.58329C21.084 8.52475 21.9421 7.66663 23.0007 7.66663C24.0592 7.66663 24.9173 8.52475 24.9173 9.58329ZM24.9173 9.58329V9.58329C25.6919 9.58329 26.0792 9.58329 26.4 9.6544C27.5382 9.90675 28.4272 10.7957 28.6795 11.934C28.7507 12.2547 28.7507 12.642 28.7507 13.4166V23C28.7507 26.3445 28.7507 28.0168 28.1026 29.2956C27.5258 30.4338 26.6011 31.3584 25.4629 31.9353C24.1842 32.5833 22.5119 32.5833 19.1673 32.5833V32.5833M19.1673 32.5833C19.1673 42.1666 35.459 43.125 35.459 32.5833V24.9166" stroke="#2F80ED" stroke-width="2"/>
<path d="M38.334 22.0416C38.334 23.6294 37.0468 24.9166 35.459 24.9166C33.8712 24.9166 32.584 23.6294 32.584 22.0416C32.584 20.4538 33.8712 19.1666 35.459 19.1666C37.0468 19.1666 38.334 20.4538 38.334 22.0416Z" stroke="#2F80ED" stroke-width="2"/>
<path d="M35.459 22.0225H35.4776V22.0411H35.459V22.0225Z" stroke="#2F80ED" stroke-linejoin="round"/>
</svg>
