<svg width="46" height="46" viewBox="0 0 46 46" fill="none" xmlns="http://www.w3.org/2000/svg">
<path d="M14.3752 9.58329V9.58329C12.7029 9.58329 11.8667 9.58329 11.2274 9.90731C10.6583 10.1957 10.1959 10.6581 9.90751 11.2272C9.5835 11.8665 9.5835 12.7027 9.5835 14.375V23C9.5835 26.3445 9.5835 28.0168 10.2315 29.2956C10.8083 30.4338 11.733 31.3584 12.8712 31.9353C14.1499 32.5833 15.8222 32.5833 19.1668 32.5833V32.5833M14.3752 9.58329C14.3752 10.6418 15.2333 11.5 16.2918 11.5C17.3504 11.5 18.2085 10.6418 18.2085 9.58329C18.2085 8.52475 17.3504 7.66663 16.2918 7.66663C15.2333 7.66663 14.3752 8.52475 14.3752 9.58329ZM24.9168 9.58329C24.9168 10.6418 24.0587 11.5 23.0002 11.5C21.9416 11.5 21.0835 10.6418 21.0835 9.58329C21.0835 8.52475 21.9416 7.66663 23.0002 7.66663C24.0587 7.66663 24.9168 8.52475 24.9168 9.58329ZM24.9168 9.58329V9.58329C25.6914 9.58329 26.0787 9.58329 26.3995 9.6544C27.5377 9.90675 28.4267 10.7957 28.6791 11.934C28.7502 12.2547 28.7502 12.642 28.7502 13.4166V23C28.7502 26.3445 28.7502 28.0168 28.1021 29.2956C27.5253 30.4338 26.6006 31.3584 25.4624 31.9353C24.1837 32.5833 22.5114 32.5833 19.1668 32.5833V32.5833M19.1668 32.5833C19.1668 42.1666 35.4585 43.125 35.4585 32.5833V24.9166" stroke="#CDD1E0" stroke-width="2"/>
<path d="M38.3335 22.0416C38.3335 23.6294 37.0463 24.9166 35.4585 24.9166C33.8707 24.9166 32.5835 23.6294 32.5835 22.0416C32.5835 20.4538 33.8707 19.1666 35.4585 19.1666C37.0463 19.1666 38.3335 20.4538 38.3335 22.0416Z" stroke="#CDD1E0" stroke-width="2"/>
<path d="M35.4585 22.0225H35.4771V22.0411H35.4585V22.0225Z" stroke="#CDD1E0" stroke-linejoin="round"/>
</svg>
