<svg width="43" height="43" viewBox="0 0 43 43" fill="none" xmlns="http://www.w3.org/2000/svg">
<path d="M11.7785 15.2163C12.0636 15.2163 12.3371 15.0948 12.5387 14.8786C12.7403 14.6624 12.8535 14.3691 12.8535 14.0634V6.76166C12.8535 6.4559 12.9668 6.16265 13.1684 5.94644C13.37 5.73023 13.6434 5.60876 13.9285 5.60876H29.6952C29.8364 5.60876 29.9761 5.63859 30.1066 5.69652C30.237 5.75446 30.3555 5.83938 30.4553 5.94644C30.5551 6.0535 30.6343 6.18059 30.6884 6.32047C30.7424 6.46034 30.7702 6.61026 30.7702 6.76166V14.0634C30.7702 14.3691 30.8834 14.6624 31.085 14.8786C31.2866 15.0948 31.5601 15.2163 31.8452 15.2163H35.0702C35.2114 15.2163 35.3511 15.2461 35.4816 15.304C35.612 15.362 35.7305 15.4469 35.8303 15.5539C35.9301 15.661 36.0093 15.7881 36.0634 15.928C36.1174 16.0678 36.1452 16.2178 36.1452 16.3692V39.0428C36.1452 39.1942 36.1174 39.3441 36.0634 39.484C36.0093 39.6239 35.9301 39.751 35.8303 39.858C35.7305 39.9651 35.612 40.05 35.4816 40.108C35.3511 40.1659 35.2114 40.1957 35.0702 40.1957H8.55352C8.26841 40.1957 7.99498 40.0743 7.79338 39.858C7.59177 39.6418 7.47852 39.3486 7.47852 39.0428V16.3692C7.47852 16.0634 7.59177 15.7701 7.79338 15.5539C7.99498 15.3377 8.26841 15.2163 8.55352 15.2163H11.7785V15.2163Z" stroke="#2F80ED" stroke-width="2.56214"/>
<path d="M17.902 14.9657H21.4853M25.0687 14.9657H21.4853M21.4853 14.9657V11.1227M21.4853 14.9657V18.8087M28.6663 32.2784L28.6843 32.2572M28.6663 24.5924L28.6843 24.5712M21.4997 24.5924L21.5176 24.5712M14.333 24.5924L14.3509 24.5712M14.333 32.2784L14.3509 32.2572M21.4997 32.2784L21.5176 32.2572" stroke="#2F80ED" stroke-width="2.56214" stroke-linecap="round" stroke-linejoin="round"/>
</svg>
