<svg width="43" height="43" viewBox="0 0 43 43" fill="none" xmlns="http://www.w3.org/2000/svg">
<path d="M11.778 15.2163C12.0631 15.2163 12.3366 15.0948 12.5382 14.8786C12.7398 14.6624 12.853 14.3691 12.853 14.0634V6.76166C12.853 6.4559 12.9663 6.16265 13.1679 5.94644C13.3695 5.73023 13.6429 5.60876 13.928 5.60876H29.6947C29.8359 5.60876 29.9757 5.63859 30.1061 5.69652C30.2365 5.75446 30.355 5.83938 30.4548 5.94644C30.5547 6.0535 30.6338 6.18059 30.6879 6.32047C30.7419 6.46034 30.7697 6.61026 30.7697 6.76166V14.0634C30.7697 14.3691 30.883 14.6624 31.0846 14.8786C31.2862 15.0948 31.5596 15.2163 31.8447 15.2163H35.0697C35.2109 15.2163 35.3507 15.2461 35.4811 15.304C35.6115 15.362 35.73 15.4469 35.8298 15.5539C35.9297 15.661 36.0088 15.7881 36.0629 15.928C36.1169 16.0678 36.1447 16.2178 36.1447 16.3692V39.0428C36.1447 39.1942 36.1169 39.3441 36.0629 39.484C36.0088 39.6239 35.9297 39.751 35.8298 39.858C35.73 39.9651 35.6115 40.05 35.4811 40.108C35.3507 40.1659 35.2109 40.1957 35.0697 40.1957H8.55303C8.26792 40.1957 7.99449 40.0743 7.79289 39.858C7.59129 39.6418 7.47803 39.3486 7.47803 39.0428V16.3692C7.47803 16.0634 7.59129 15.7701 7.79289 15.5539C7.99449 15.3377 8.26792 15.2163 8.55303 15.2163H11.778V15.2163Z" stroke="#CDD1E0" stroke-width="2.56214"/>
<path d="M17.902 14.9657H21.4853M25.0687 14.9657H21.4853M21.4853 14.9657V11.1227M21.4853 14.9657V18.8087M28.6663 32.2784L28.6843 32.2572M28.6663 24.5924L28.6843 24.5712M21.4997 24.5924L21.5176 24.5712M14.333 24.5924L14.3509 24.5712M14.333 32.2784L14.3509 32.2572M21.4997 32.2784L21.5176 32.2572" stroke="#CDD1E0" stroke-width="2.56214" stroke-linecap="round" stroke-linejoin="round"/>
</svg>
