<svg width="48" height="48" viewBox="0 0 48 48" fill="none" xmlns="http://www.w3.org/2000/svg">
<path fill-rule="evenodd" clip-rule="evenodd" d="M32 9C31.7348 9 31.4804 8.89464 31.2929 8.70711C31.1054 8.51957 31 8.26522 31 8V6H29V8C29 9.306 29.835 10.418 31 10.83V12H30C29.7348 12 29.4804 12.1054 29.2929 12.2929C29.1054 12.4804 29 12.7348 29 13V19C29 19.2652 29.1054 19.5196 29.2929 19.7071C29.4804 19.8946 29.7348 20 30 20H34C34.2652 20 34.5196 19.8946 34.7071 19.7071C34.8946 19.5196 35 19.2652 35 19V13C35 12.7348 34.8946 12.4804 34.7071 12.2929C34.5196 12.1054 34.2652 12 34 12H33V11H38V23.066H20.11C20.0695 23.0661 20.0294 23.0582 19.992 23.0428C19.9546 23.0273 19.9206 23.0046 19.892 22.976L19.526 22.606L19.895 22.239C20.2454 21.889 20.5233 21.4733 20.713 21.0158C20.9026 20.5583 21.0003 20.068 21.0004 19.5727C21.0005 19.0775 20.903 18.587 20.7135 18.1295C20.524 17.6719 20.2462 17.2562 19.896 16.906L18.096 15.106C17.746 14.7556 17.3305 14.4776 16.8731 14.2879C16.4156 14.0981 15.9253 14.0003 15.4301 14C14.9349 13.9997 14.4445 14.097 13.9869 14.2862C13.5292 14.4755 13.1134 14.753 12.763 15.103L12.059 15.807C11.3783 15.6132 10.658 15.6057 9.97337 15.7853C9.28876 15.9649 8.66492 16.325 8.167 16.828C7.41929 17.5833 6.99986 18.6032 6.99986 19.666C6.99986 20.7288 7.41929 21.7487 8.167 22.504L9 23.343V34H6V36H9.05C8.55338 36.4866 8.21293 37.1101 8.07208 37.7909C7.93122 38.4718 7.99634 39.1792 8.25913 39.8229C8.52192 40.4666 8.97048 41.0174 9.54759 41.4052C10.1247 41.7929 10.8042 42 11.4995 42C12.1948 42 12.8743 41.7929 13.4514 41.4052C14.0285 41.0174 14.4771 40.4666 14.7399 39.8229C15.0027 39.1792 15.0678 38.4718 14.9269 37.7909C14.7861 37.1101 14.4456 36.4866 13.949 36H34.051C33.5544 36.4866 33.2139 37.1101 33.0731 37.7909C32.9322 38.4718 32.9973 39.1792 33.2601 39.8229C33.5229 40.4666 33.9715 41.0174 34.5486 41.4052C35.1257 41.7929 35.8052 42 36.5005 42C37.1958 42 37.8753 41.7929 38.4524 41.4052C39.0295 41.0174 39.4781 40.4666 39.7409 39.8229C40.0037 39.1792 40.0688 38.4718 39.9279 37.7909C39.7871 37.1101 39.4466 36.4866 38.95 36H42V34H38V31H38.066C40.24 31 42 29.224 42 27.033C42.0014 26.3318 41.817 25.6428 41.4657 25.0359C41.1144 24.4291 40.6087 23.926 40 23.578V11C40 10.4696 39.7893 9.96086 39.4142 9.58579C39.0391 9.21071 38.5304 9 38 9H32ZM13.826 16.868L18.116 21.188L18.481 20.824C18.6455 20.6596 18.776 20.4644 18.865 20.2496C18.954 20.0348 18.9998 19.8045 18.9998 19.572C18.9998 19.3395 18.954 19.1092 18.865 18.8944C18.776 18.6796 18.6455 18.4844 18.481 18.32L16.681 16.52C16.3492 16.1878 15.899 16.0009 15.4294 16.0006C14.9599 16.0002 14.5094 16.1863 14.177 16.518L13.827 16.868H13.826ZM16.276 30.668C16.486 30.88 16.773 31 17.072 31H36V34H11V25.356L16.275 30.667L16.276 30.668ZM18.474 24.385C18.905 24.819 19.494 25.066 20.11 25.066H38.066C39.118 25.066 40 25.931 40 27.033C40 28.135 39.119 29 38.066 29H17.438L9.586 21.095C9.21048 20.7144 8.99994 20.2012 8.99994 19.6665C8.99994 19.1318 9.21048 18.6186 9.586 18.238C9.76771 18.0536 9.98426 17.9072 10.2231 17.8073C10.4619 17.7073 10.7181 17.6559 10.977 17.6559C11.2359 17.6559 11.4921 17.7073 11.7309 17.8073C11.9697 17.9072 12.1863 18.0536 12.368 18.238L18.474 24.385V24.385ZM13 38.5C13 38.8978 12.842 39.2794 12.5607 39.5607C12.2794 39.842 11.8978 40 11.5 40C11.1022 40 10.7206 39.842 10.4393 39.5607C10.158 39.2794 10 38.8978 10 38.5C10 38.1022 10.158 37.7206 10.4393 37.4393C10.7206 37.158 11.1022 37 11.5 37C11.8978 37 12.2794 37.158 12.5607 37.4393C12.842 37.7206 13 38.1022 13 38.5V38.5ZM36.5 40C36.8978 40 37.2794 39.842 37.5607 39.5607C37.842 39.2794 38 38.8978 38 38.5C38 38.1022 37.842 37.7206 37.5607 37.4393C37.2794 37.158 36.8978 37 36.5 37C36.1022 37 35.7206 37.158 35.4393 37.4393C35.158 37.7206 35 38.1022 35 38.5C35 38.8978 35.158 39.2794 35.4393 39.5607C35.7206 39.842 36.1022 40 36.5 40V40ZM31 18V14H33V18H31Z" fill="#CDD1E0"/>
</svg>
