<svg width="194" height="72" viewBox="0 0 194 72" fill="none" xmlns="http://www.w3.org/2000/svg">
<path d="M75.08 32V2.2H85.92C87.92 2.2 89.68 2.57333 91.2 3.32C92.72 4.04 93.9067 5.10666 94.76 6.52C95.64 7.90667 96.08 9.57333 96.08 11.52C96.08 13.5733 95.56 15.3333 94.52 16.8C93.5067 18.2667 92.1333 19.3333 90.4 20L97.28 32H91.92L84.6 19L87.68 20.8H79.8V32H75.08ZM79.8 16.6H86C87.0933 16.6 88.04 16.3867 88.84 15.96C89.64 15.5333 90.2533 14.9467 90.68 14.2C91.1333 13.4267 91.36 12.52 91.36 11.48C91.36 10.44 91.1333 9.54666 90.68 8.8C90.2533 8.02667 89.64 7.44 88.84 7.04C88.04 6.61333 87.0933 6.4 86 6.4H79.8V16.6ZM107.292 32.48C105.825 32.48 104.532 32.2267 103.412 31.72C102.319 31.1867 101.465 30.4667 100.852 29.56C100.239 28.6267 99.9319 27.5333 99.9319 26.28C99.9319 25.1067 100.185 24.0533 100.692 23.12C101.225 22.1867 102.039 21.4 103.132 20.76C104.225 20.12 105.599 19.6667 107.252 19.4L114.772 18.16V21.72L108.132 22.88C106.932 23.0933 106.052 23.48 105.492 24.04C104.932 24.5733 104.652 25.2667 104.652 26.12C104.652 26.9467 104.959 27.6267 105.572 28.16C106.212 28.6667 107.025 28.92 108.012 28.92C109.239 28.92 110.305 28.6533 111.212 28.12C112.145 27.5867 112.865 26.88 113.372 26C113.879 25.0933 114.132 24.0933 114.132 23V17.44C114.132 16.3733 113.732 15.5067 112.932 14.84C112.159 14.1467 111.119 13.8 109.812 13.8C108.612 13.8 107.559 14.12 106.652 14.76C105.772 15.3733 105.119 16.1733 104.692 17.16L100.932 15.28C101.332 14.2133 101.985 13.28 102.892 12.48C103.799 11.6533 104.852 11.0133 106.052 10.56C107.279 10.1067 108.572 9.88 109.932 9.88C111.639 9.88 113.145 10.2 114.452 10.84C115.785 11.48 116.812 12.3733 117.532 13.52C118.279 14.64 118.652 15.9467 118.652 17.44V32H114.332V28.08L115.252 28.2C114.745 29.08 114.092 29.84 113.292 30.48C112.519 31.12 111.625 31.6133 110.612 31.96C109.625 32.3067 108.519 32.48 107.292 32.48ZM129.177 32L121.737 10.36H126.537L132.217 27.6H130.537L136.337 10.36H140.457L146.217 27.6H144.537L150.257 10.36H155.057L147.577 32H143.497L137.657 14.36H139.137L133.297 32H129.177ZM163.854 32.48C162.388 32.48 161.094 32.2267 159.974 31.72C158.881 31.1867 158.028 30.4667 157.414 29.56C156.801 28.6267 156.494 27.5333 156.494 26.28C156.494 25.1067 156.748 24.0533 157.254 23.12C157.788 22.1867 158.601 21.4 159.694 20.76C160.788 20.12 162.161 19.6667 163.814 19.4L171.334 18.16V21.72L164.694 22.88C163.494 23.0933 162.614 23.48 162.054 24.04C161.494 24.5733 161.214 25.2667 161.214 26.12C161.214 26.9467 161.521 27.6267 162.134 28.16C162.774 28.6667 163.588 28.92 164.574 28.92C165.801 28.92 166.868 28.6533 167.774 28.12C168.708 27.5867 169.428 26.88 169.934 26C170.441 25.0933 170.694 24.0933 170.694 23V17.44C170.694 16.3733 170.294 15.5067 169.494 14.84C168.721 14.1467 167.681 13.8 166.374 13.8C165.174 13.8 164.121 14.12 163.214 14.76C162.334 15.3733 161.681 16.1733 161.254 17.16L157.494 15.28C157.894 14.2133 158.548 13.28 159.454 12.48C160.361 11.6533 161.414 11.0133 162.614 10.56C163.841 10.1067 165.134 9.88 166.494 9.88C168.201 9.88 169.708 10.2 171.014 10.84C172.348 11.48 173.374 12.3733 174.094 13.52C174.841 14.64 175.214 15.9467 175.214 17.44V32H170.894V28.08L171.814 28.2C171.308 29.08 170.654 29.84 169.854 30.48C169.081 31.12 168.188 31.6133 167.174 31.96C166.188 32.3067 165.081 32.48 163.854 32.48ZM189.469 32.24C187.202 32.24 185.442 31.6 184.189 30.32C182.935 29.04 182.309 27.24 182.309 24.92V14.44H178.509V10.36H179.109C180.122 10.36 180.909 10.0667 181.469 9.48C182.029 8.89333 182.309 8.09333 182.309 7.08V5.4H186.829V10.36H191.749V14.44H186.829V24.72C186.829 25.4667 186.949 26.1067 187.189 26.64C187.429 27.1467 187.815 27.5467 188.349 27.84C188.882 28.1067 189.575 28.24 190.429 28.24C190.642 28.24 190.882 28.2267 191.149 28.2C191.415 28.1733 191.669 28.1467 191.909 28.12V32C191.535 32.0533 191.122 32.1067 190.669 32.16C190.215 32.2133 189.815 32.24 189.469 32.24Z" fill="#1FA8F6"/>
<path d="M75.08 64V34.2H79.8V64H75.08ZM85.5384 64V42.36H89.8584V46.6L89.3384 46.04C89.8718 44.68 90.7251 43.6533 91.8984 42.96C93.0718 42.24 94.4318 41.88 95.9784 41.88C97.5784 41.88 98.9918 42.2267 100.218 42.92C101.445 43.6133 102.405 44.5733 103.098 45.8C103.792 47.0267 104.138 48.44 104.138 50.04V64H99.6584V51.24C99.6584 50.1467 99.4584 49.2267 99.0584 48.48C98.6584 47.7067 98.0851 47.12 97.3384 46.72C96.6184 46.2933 95.7918 46.08 94.8584 46.08C93.9251 46.08 93.0851 46.2933 92.3384 46.72C91.6184 47.12 91.0584 47.7067 90.6584 48.48C90.2584 49.2533 90.0584 50.1733 90.0584 51.24V64H85.5384ZM115.456 64.48C113.989 64.48 112.696 64.2267 111.576 63.72C110.483 63.1867 109.629 62.4667 109.016 61.56C108.403 60.6267 108.096 59.5333 108.096 58.28C108.096 57.1067 108.349 56.0533 108.856 55.12C109.389 54.1867 110.203 53.4 111.296 52.76C112.389 52.12 113.763 51.6667 115.416 51.4L122.936 50.16V53.72L116.296 54.88C115.096 55.0933 114.216 55.48 113.656 56.04C113.096 56.5733 112.816 57.2667 112.816 58.12C112.816 58.9467 113.123 59.6267 113.736 60.16C114.376 60.6667 115.189 60.92 116.176 60.92C117.403 60.92 118.469 60.6533 119.376 60.12C120.309 59.5867 121.029 58.88 121.536 58C122.043 57.0933 122.296 56.0933 122.296 55V49.44C122.296 48.3733 121.896 47.5067 121.096 46.84C120.323 46.1467 119.283 45.8 117.976 45.8C116.776 45.8 115.723 46.12 114.816 46.76C113.936 47.3733 113.283 48.1733 112.856 49.16L109.096 47.28C109.496 46.2133 110.149 45.28 111.056 44.48C111.963 43.6533 113.016 43.0133 114.216 42.56C115.443 42.1067 116.736 41.88 118.096 41.88C119.803 41.88 121.309 42.2 122.616 42.84C123.949 43.48 124.976 44.3733 125.696 45.52C126.443 46.64 126.816 47.9467 126.816 49.44V64H122.496V60.08L123.416 60.2C122.909 61.08 122.256 61.84 121.456 62.48C120.683 63.12 119.789 63.6133 118.776 63.96C117.789 64.3067 116.683 64.48 115.456 64.48ZM132.101 72V42.36H136.421V46.84L135.901 45.8C136.701 44.5733 137.768 43.6133 139.101 42.92C140.434 42.2267 141.954 41.88 143.661 41.88C145.714 41.88 147.554 42.3733 149.181 43.36C150.834 44.3467 152.128 45.6933 153.061 47.4C154.021 49.1067 154.501 51.0267 154.501 53.16C154.501 55.2933 154.021 57.2133 153.061 58.92C152.128 60.6267 150.848 61.9867 149.221 63C147.594 63.9867 145.741 64.48 143.661 64.48C141.981 64.48 140.448 64.1333 139.061 63.44C137.701 62.7467 136.648 61.7467 135.901 60.44L136.621 59.6V72H132.101ZM143.221 60.28C144.501 60.28 145.634 59.9733 146.621 59.36C147.608 58.7467 148.381 57.9067 148.941 56.84C149.528 55.7467 149.821 54.52 149.821 53.16C149.821 51.8 149.528 50.5867 148.941 49.52C148.381 48.4533 147.608 47.6133 146.621 47C145.634 46.3867 144.501 46.08 143.221 46.08C141.968 46.08 140.834 46.3867 139.821 47C138.834 47.6133 138.048 48.4533 137.461 49.52C136.901 50.5867 136.621 51.8 136.621 53.16C136.621 54.52 136.901 55.7467 137.461 56.84C138.048 57.9067 138.834 58.7467 139.821 59.36C140.834 59.9733 141.968 60.28 143.221 60.28Z" fill="#9DD9FB"/>
<path d="M53.75 32C53.75 45.8071 43.8071 55.75 30 55.75C16.1929 55.75 6.25 45.8071 6.25 32C6.25 18.1929 16.1929 8.25 30 8.25C43.8071 8.25 53.75 18.1929 53.75 32Z" fill="#1FA8F6"/>
<path d="M25.5504 21.4291C25.3125 22.0034 25.3125 22.7314 25.3125 24.1875V27.2525C25.3125 27.2808 25.3125 27.2949 25.3037 27.3037C25.2949 27.3125 25.2808 27.3125 25.2525 27.3125H22.1875C20.7314 27.3125 20.0034 27.3125 19.4291 27.5504C18.6634 27.8675 18.055 28.4759 17.7379 29.2416C17.5 29.8159 17.5 30.5439 17.5 32C17.5 33.4561 17.5 34.1841 17.7379 34.7584C18.055 35.5241 18.6634 36.1325 19.4291 36.4496C20.0034 36.6875 20.7314 36.6875 22.1875 36.6875H25.2525C25.2808 36.6875 25.2949 36.6875 25.3037 36.6963C25.3125 36.7051 25.3125 36.7192 25.3125 36.7475V39.8125C25.3125 41.2686 25.3125 41.9966 25.5504 42.5709C25.8675 43.3366 26.4759 43.945 27.2416 44.2621C27.8159 44.5 28.5439 44.5 30 44.5C31.4561 44.5 32.1841 44.5 32.7584 44.2621C33.5241 43.945 34.1325 43.3366 34.4496 42.5709C34.6875 41.9966 34.6875 41.2686 34.6875 39.8125V36.7475C34.6875 36.7192 34.6875 36.7051 34.6963 36.6963C34.7051 36.6875 34.7192 36.6875 34.7475 36.6875H37.8125C39.2686 36.6875 39.9966 36.6875 40.5709 36.4496C41.3366 36.1325 41.945 35.5241 42.2621 34.7584C42.5 34.1841 42.5 33.4561 42.5 32C42.5 30.5439 42.5 29.8159 42.2621 29.2416C41.945 28.4759 41.3366 27.8675 40.5709 27.5504C39.9966 27.3125 39.2686 27.3125 37.8125 27.3125H34.7475C34.7192 27.3125 34.7051 27.3125 34.6963 27.3037C34.6875 27.2949 34.6875 27.2808 34.6875 27.2525V24.1875C34.6875 22.7314 34.6875 22.0034 34.4496 21.4291C34.1325 20.6634 33.5241 20.055 32.7584 19.7379C32.1841 19.5 31.4561 19.5 30 19.5C28.5439 19.5 27.8159 19.5 27.2416 19.7379C26.4759 20.055 25.8675 20.6634 25.5504 21.4291Z" fill="#9DD9FB" stroke="#9DD9FB"/>
<path d="M25.7284 21.8519C25.5 22.4033 25.5 23.1022 25.5 24.5V27.44C25.5 27.4683 25.5 27.4824 25.4912 27.4912C25.4824 27.5 25.4683 27.5 25.44 27.5H22.5C21.1022 27.5 20.4033 27.5 19.8519 27.7284C19.1169 28.0328 18.5328 28.6169 18.2284 29.3519C18 29.9033 18 30.6022 18 32C18 33.3978 18 34.0967 18.2284 34.6481C18.5328 35.3831 19.1169 35.9672 19.8519 36.2716C20.4033 36.5 21.1022 36.5 22.5 36.5H25.44C25.4683 36.5 25.4824 36.5 25.4912 36.5088C25.5 36.5176 25.5 36.5317 25.5 36.56V39.5C25.5 40.8978 25.5 41.5967 25.7284 42.1481C26.0328 42.8831 26.6169 43.4672 27.3519 43.7716C27.9033 44 28.6022 44 30 44C31.3978 44 32.0967 44 32.6481 43.7716C33.3831 43.4672 33.9672 42.8831 34.2716 42.1481C34.5 41.5967 34.5 40.8978 34.5 39.5V36.56C34.5 36.5317 34.5 36.5176 34.5088 36.5088C34.5176 36.5 34.5317 36.5 34.56 36.5H37.5C38.8978 36.5 39.5967 36.5 40.1481 36.2716C40.8831 35.9672 41.4672 35.3831 41.7716 34.6481C42 34.0967 42 33.3978 42 32C42 30.6022 42 29.9033 41.7716 29.352C41.4672 28.6169 40.8831 28.0328 40.1481 27.7284C39.5967 27.5 38.8978 27.5 37.5 27.5H34.56C34.5317 27.5 34.5176 27.5 34.5088 27.4912C34.5 27.4824 34.5 27.4683 34.5 27.44V24.5C34.5 23.1022 34.5 22.4033 34.2716 21.8519C33.9672 21.1169 33.3831 20.5328 32.6481 20.2284C32.0967 20 31.3978 20 30 20C28.6022 20 27.9033 20 27.3519 20.2284C26.6169 20.5328 26.0328 21.1169 25.7284 21.8519Z" stroke="white"/>
</svg>
