<svg width="36" height="28" viewBox="0 0 36 28" fill="none" xmlns="http://www.w3.org/2000/svg">
<path d="M33.75 27.4999C33.75 27.4999 36 27.4999 36 25.2499C36 22.9999 33.75 16.2499 24.75 16.2499C15.75 16.2499 13.5 22.9999 13.5 25.2499C13.5 27.4999 15.75 27.4999 15.75 27.4999H33.75ZM15.7995 25.2499C15.7829 25.2476 15.7664 25.2446 15.75 25.2409C15.7522 24.6469 16.1258 22.9234 17.46 21.3709C18.702 19.9151 20.8845 18.4999 24.75 18.4999C28.6133 18.4999 30.7958 19.9174 32.04 21.3709C33.3743 22.9234 33.7455 24.6491 33.75 25.2409L33.732 25.2454C33.7215 25.2471 33.711 25.2486 33.7005 25.2499H15.7995ZM24.75 11.7499C25.9435 11.7499 27.0881 11.2758 27.932 10.4319C28.7759 9.58794 29.25 8.44335 29.25 7.24988C29.25 6.0564 28.7759 4.91181 27.932 4.0679C27.0881 3.22398 25.9435 2.74988 24.75 2.74988C23.5565 2.74988 22.4119 3.22398 21.568 4.0679C20.7241 4.91181 20.25 6.0564 20.25 7.24988C20.25 8.44335 20.7241 9.58794 21.568 10.4319C22.4119 11.2758 23.5565 11.7499 24.75 11.7499ZM31.5 7.24988C31.5 8.1363 31.3254 9.01404 30.9862 9.83299C30.647 10.6519 30.1498 11.3961 29.523 12.0228C28.8962 12.6496 28.1521 13.1468 27.3331 13.4861C26.5142 13.8253 25.6364 13.9999 24.75 13.9999C23.8636 13.9999 22.9858 13.8253 22.1669 13.4861C21.3479 13.1468 20.6038 12.6496 19.977 12.0228C19.3502 11.3961 18.853 10.6519 18.5138 9.83299C18.1746 9.01404 18 8.1363 18 7.24988C18 5.45967 18.7112 3.74278 19.977 2.47691C21.2429 1.21104 22.9598 0.499878 24.75 0.499878C26.5402 0.499878 28.2571 1.21104 29.523 2.47691C30.7888 3.74278 31.5 5.45967 31.5 7.24988ZM15.606 16.8799C14.706 16.5965 13.7782 16.4102 12.8385 16.3241C12.3105 16.2739 11.7804 16.2491 11.25 16.2499C2.25 16.2499 0 22.9999 0 25.2499C0 26.7506 0.74925 27.4999 2.25 27.4999H11.736C11.4024 26.7975 11.2361 26.0273 11.25 25.2499C11.25 22.9774 12.0983 20.6554 13.7025 18.7159C14.2493 18.0544 14.886 17.4356 15.606 16.8799ZM11.07 18.4999C9.73835 20.5007 9.01899 22.8465 9 25.2499H2.25C2.25 24.6649 2.619 22.9324 3.96 21.3709C5.18625 19.9399 7.317 18.5449 11.07 18.5021V18.4999ZM3.375 8.37488C3.375 6.58467 4.08616 4.86778 5.35203 3.60191C6.6179 2.33604 8.33479 1.62488 10.125 1.62488C11.9152 1.62488 13.6321 2.33604 14.898 3.60191C16.1638 4.86778 16.875 6.58467 16.875 8.37488C16.875 10.1651 16.1638 11.882 14.898 13.1478C13.6321 14.4137 11.9152 15.1249 10.125 15.1249C8.33479 15.1249 6.6179 14.4137 5.35203 13.1478C4.08616 11.882 3.375 10.1651 3.375 8.37488ZM10.125 3.87488C8.93153 3.87488 7.78693 4.34898 6.94302 5.1929C6.09911 6.03681 5.625 7.1814 5.625 8.37488C5.625 9.56835 6.09911 10.7129 6.94302 11.5569C7.78693 12.4008 8.93153 12.8749 10.125 12.8749C11.3185 12.8749 12.4631 12.4008 13.307 11.5569C14.1509 10.7129 14.625 9.56835 14.625 8.37488C14.625 7.1814 14.1509 6.03681 13.307 5.1929C12.4631 4.34898 11.3185 3.87488 10.125 3.87488Z" fill="#CDD1E0"/>
</svg>
