<svg width="36" height="36" viewBox="0 0 36 36" fill="none" xmlns="http://www.w3.org/2000/svg">
<g clip-path="url(#clip0_108_2928)">
<path d="M33.75 31.4999C33.75 31.4999 36 31.4999 36 29.2499C36 26.9999 33.75 20.2499 24.75 20.2499C15.75 20.2499 13.5 26.9999 13.5 29.2499C13.5 31.4999 15.75 31.4999 15.75 31.4999H33.75ZM15.7995 29.2499C15.7829 29.2476 15.7664 29.2446 15.75 29.2409C15.7522 28.6469 16.1258 26.9234 17.46 25.3709C18.702 23.9151 20.8845 22.4999 24.75 22.4999C28.6133 22.4999 30.7958 23.9174 32.04 25.3709C33.3743 26.9234 33.7455 28.6491 33.75 29.2409L33.732 29.2454C33.7215 29.2471 33.711 29.2486 33.7005 29.2499H15.7995ZM24.75 15.7499C25.9435 15.7499 27.0881 15.2758 27.932 14.4319C28.7759 13.5879 29.25 12.4434 29.25 11.2499C29.25 10.0564 28.7759 8.91181 27.932 8.0679C27.0881 7.22398 25.9435 6.74988 24.75 6.74988C23.5565 6.74988 22.4119 7.22398 21.568 8.0679C20.7241 8.91181 20.25 10.0564 20.25 11.2499C20.25 12.4434 20.7241 13.5879 21.568 14.4319C22.4119 15.2758 23.5565 15.7499 24.75 15.7499ZM31.5 11.2499C31.5 12.1363 31.3254 13.014 30.9862 13.833C30.647 14.6519 30.1498 15.3961 29.523 16.0228C28.8962 16.6496 28.1521 17.1468 27.3331 17.4861C26.5142 17.8253 25.6364 17.9999 24.75 17.9999C23.8636 17.9999 22.9858 17.8253 22.1669 17.4861C21.3479 17.1468 20.6038 16.6496 19.977 16.0228C19.3502 15.3961 18.853 14.6519 18.5138 13.833C18.1746 13.014 18 12.1363 18 11.2499C18 9.45967 18.7112 7.74278 19.977 6.47691C21.2429 5.21104 22.9598 4.49988 24.75 4.49988C26.5402 4.49988 28.2571 5.21104 29.523 6.47691C30.7888 7.74278 31.5 9.45967 31.5 11.2499ZM15.606 20.8799C14.706 20.5965 13.7782 20.4102 12.8385 20.3241C12.3105 20.2739 11.7804 20.2491 11.25 20.2499C2.25 20.2499 0 26.9999 0 29.2499C0 30.7506 0.74925 31.4999 2.25 31.4999H11.736C11.4024 30.7975 11.2361 30.0273 11.25 29.2499C11.25 26.9774 12.0983 24.6554 13.7025 22.7159C14.2493 22.0544 14.886 21.4356 15.606 20.8799ZM11.07 22.4999C9.73835 24.5007 9.01899 26.8465 9 29.2499H2.25C2.25 28.6649 2.619 26.9324 3.96 25.3709C5.18625 23.9399 7.317 22.5449 11.07 22.5021V22.4999ZM3.375 12.3749C3.375 10.5847 4.08616 8.86778 5.35203 7.60191C6.6179 6.33604 8.33479 5.62488 10.125 5.62488C11.9152 5.62488 13.6321 6.33604 14.898 7.60191C16.1638 8.86778 16.875 10.5847 16.875 12.3749C16.875 14.1651 16.1638 15.882 14.898 17.1478C13.6321 18.4137 11.9152 19.1249 10.125 19.1249C8.33479 19.1249 6.6179 18.4137 5.35203 17.1478C4.08616 15.882 3.375 14.1651 3.375 12.3749ZM10.125 7.87488C8.93153 7.87488 7.78693 8.34898 6.94302 9.1929C6.09911 10.0368 5.625 11.1814 5.625 12.3749C5.625 13.5684 6.09911 14.7129 6.94302 15.5569C7.78693 16.4008 8.93153 16.8749 10.125 16.8749C11.3185 16.8749 12.4631 16.4008 13.307 15.5569C14.1509 14.7129 14.625 13.5684 14.625 12.3749C14.625 11.1814 14.1509 10.0368 13.307 9.1929C12.4631 8.34898 11.3185 7.87488 10.125 7.87488Z" fill="#2F80ED"/>
</g>
<defs>
<clipPath id="clip0_108_2928">
<rect width="36" height="36" fill="white"/>
</clipPath>
</defs>
</svg>
