<svg width="33" height="32" viewBox="0 0 33 32" fill="none" xmlns="http://www.w3.org/2000/svg">
<path d="M2 5.14697H31C31.5523 5.14697 32 5.59469 32 6.14697V29.0857C32 29.638 31.5523 30.0857 31 30.0857H2C1.44772 30.0857 1 29.638 1 29.0857V6.14697C1 5.59469 1.44772 5.14697 2 5.14697Z" stroke="#1FA8F6" stroke-width="2" stroke-linejoin="round"/>
<path d="M4.77148 5.14697H5.60006V5.96534C5.60006 6.19414 5.41457 6.37963 5.18577 6.37963C4.95697 6.37963 4.77148 6.19414 4.77148 5.96534V5.14697Z" stroke="#1FA8F6" stroke-width="2"/>
<path d="M5.6001 3.14697H4.77153V2.32861C4.77153 2.0998 4.95701 1.91432 5.18581 1.91432C5.41462 1.91432 5.6001 2.0998 5.6001 2.3286V3.14697Z" fill="#E0E0E0" stroke="#1FA8F6" stroke-width="2"/>
<path d="M27.7573 3.14697H26.9288V2.32861C26.9288 2.0998 27.1142 1.91432 27.343 1.91432C27.5718 1.91432 27.7573 2.0998 27.7573 2.3286V3.14697Z" fill="#E0E0E0" stroke="#1FA8F6" stroke-width="2"/>
<path d="M26.9287 5.14697H27.7573V5.96534C27.7573 6.19414 27.5718 6.37963 27.343 6.37963C27.1142 6.37963 26.9287 6.19414 26.9287 5.96534V5.14697Z" stroke="#1FA8F6" stroke-width="2"/>
<path d="M3.77148 17.6163C3.77148 16.7237 4.49514 16 5.38781 16H7.8123C8.70497 16 9.42863 16.7237 9.42863 17.6163V17.6163C9.42863 18.509 8.70497 19.2327 7.8123 19.2327H5.38781C4.49514 19.2327 3.77148 18.509 3.77148 17.6163V17.6163Z" fill="#1FA8F6"/>
<path d="M3.77148 23.543C3.77148 22.6503 4.49514 21.9266 5.38781 21.9266H7.8123C8.70497 21.9266 9.42863 22.6503 9.42863 23.543V23.543C9.42863 24.4356 8.70497 25.1593 7.8123 25.1593H5.38781C4.49514 25.1593 3.77148 24.4356 3.77148 23.543V23.543Z" fill="#1FA8F6"/>
<path d="M13.6714 11.6898C13.6714 10.7971 14.395 10.0735 15.2877 10.0735H17.2408C18.1334 10.0735 18.8571 10.7971 18.8571 11.6898V11.6898C18.8571 12.5825 18.1334 13.3061 17.2408 13.3061H15.2877C14.395 13.3061 13.6714 12.5825 13.6714 11.6898V11.6898Z" fill="#1FA8F6"/>
<path d="M13.6714 17.6163C13.6714 16.7237 14.395 16 15.2877 16H17.2408C18.1334 16 18.8571 16.7237 18.8571 17.6163V17.6163C18.8571 18.509 18.1334 19.2327 17.2408 19.2327H15.2877C14.395 19.2327 13.6714 18.509 13.6714 17.6163V17.6163Z" fill="#1FA8F6"/>
<path d="M13.6714 23.543C13.6714 22.6503 14.395 21.9266 15.2877 21.9266H17.2408C18.1334 21.9266 18.8571 22.6503 18.8571 23.543V23.543C18.8571 24.4356 18.1334 25.1593 17.2408 25.1593H15.2877C14.395 25.1593 13.6714 24.4356 13.6714 23.543V23.543Z" fill="#1FA8F6"/>
<path d="M23.1001 11.6898C23.1001 10.7971 23.8238 10.0735 24.7164 10.0735H27.1409C28.0336 10.0735 28.7572 10.7971 28.7572 11.6898V11.6898C28.7572 12.5825 28.0336 13.3061 27.1409 13.3061H24.7164C23.8238 13.3061 23.1001 12.5825 23.1001 11.6898V11.6898Z" fill="#1FA8F6"/>
<path d="M23.1001 17.6163C23.1001 16.7237 23.8238 16 24.7164 16H27.1409C28.0336 16 28.7572 16.7237 28.7572 17.6163V17.6163C28.7572 18.509 28.0336 19.2327 27.1409 19.2327H24.7164C23.8238 19.2327 23.1001 18.509 23.1001 17.6163V17.6163Z" fill="#1FA8F6"/>
</svg>
