<svg width="60" height="60" viewBox="0 0 60 60" fill="none" xmlns="http://www.w3.org/2000/svg">
<path d="M53.75 30C53.75 43.8071 43.8071 53.75 30 53.75C16.1929 53.75 6.25 43.8071 6.25 30C6.25 16.1929 16.1929 6.25 30 6.25C43.8071 6.25 53.75 16.1929 53.75 30Z" fill="#1FA8F6"/>
<path d="M25.5504 19.4291C25.3125 20.0034 25.3125 20.7314 25.3125 22.1875V25.2525C25.3125 25.2808 25.3125 25.2949 25.3037 25.3037C25.2949 25.3125 25.2808 25.3125 25.2525 25.3125H22.1875C20.7314 25.3125 20.0034 25.3125 19.4291 25.5504C18.6634 25.8675 18.055 26.4759 17.7379 27.2416C17.5 27.8159 17.5 28.5439 17.5 30C17.5 31.4561 17.5 32.1841 17.7379 32.7584C18.055 33.5241 18.6634 34.1325 19.4291 34.4496C20.0034 34.6875 20.7314 34.6875 22.1875 34.6875H25.2525C25.2808 34.6875 25.2949 34.6875 25.3037 34.6963C25.3125 34.7051 25.3125 34.7192 25.3125 34.7475V37.8125C25.3125 39.2686 25.3125 39.9966 25.5504 40.5709C25.8675 41.3366 26.4759 41.945 27.2416 42.2621C27.8159 42.5 28.5439 42.5 30 42.5C31.4561 42.5 32.1841 42.5 32.7584 42.2621C33.5241 41.945 34.1325 41.3366 34.4496 40.5709C34.6875 39.9966 34.6875 39.2686 34.6875 37.8125V34.7475C34.6875 34.7192 34.6875 34.7051 34.6963 34.6963C34.7051 34.6875 34.7192 34.6875 34.7475 34.6875H37.8125C39.2686 34.6875 39.9966 34.6875 40.5709 34.4496C41.3366 34.1325 41.945 33.5241 42.2621 32.7584C42.5 32.1841 42.5 31.4561 42.5 30C42.5 28.5439 42.5 27.8159 42.2621 27.2416C41.945 26.4759 41.3366 25.8675 40.5709 25.5504C39.9966 25.3125 39.2686 25.3125 37.8125 25.3125H34.7475C34.7192 25.3125 34.7051 25.3125 34.6963 25.3037C34.6875 25.2949 34.6875 25.2808 34.6875 25.2525V22.1875C34.6875 20.7314 34.6875 20.0034 34.4496 19.4291C34.1325 18.6634 33.5241 18.055 32.7584 17.7379C32.1841 17.5 31.4561 17.5 30 17.5C28.5439 17.5 27.8159 17.5 27.2416 17.7379C26.4759 18.055 25.8675 18.6634 25.5504 19.4291Z" fill="#9DD9FB" stroke="#9DD9FB"/>
<path d="M25.7284 19.8519C25.5 20.4033 25.5 21.1022 25.5 22.5V25.44C25.5 25.4683 25.5 25.4824 25.4912 25.4912C25.4824 25.5 25.4683 25.5 25.44 25.5H22.5C21.1022 25.5 20.4033 25.5 19.8519 25.7284C19.1169 26.0328 18.5328 26.6169 18.2284 27.3519C18 27.9033 18 28.6022 18 30C18 31.3978 18 32.0967 18.2284 32.6481C18.5328 33.3831 19.1169 33.9672 19.8519 34.2716C20.4033 34.5 21.1022 34.5 22.5 34.5H25.44C25.4683 34.5 25.4824 34.5 25.4912 34.5088C25.5 34.5176 25.5 34.5317 25.5 34.56V37.5C25.5 38.8978 25.5 39.5967 25.7284 40.1481C26.0328 40.8831 26.6169 41.4672 27.3519 41.7716C27.9033 42 28.6022 42 30 42C31.3978 42 32.0967 42 32.6481 41.7716C33.3831 41.4672 33.9672 40.8831 34.2716 40.1481C34.5 39.5967 34.5 38.8978 34.5 37.5V34.56C34.5 34.5317 34.5 34.5176 34.5088 34.5088C34.5176 34.5 34.5317 34.5 34.56 34.5H37.5C38.8978 34.5 39.5967 34.5 40.1481 34.2716C40.8831 33.9672 41.4672 33.3831 41.7716 32.6481C42 32.0967 42 31.3978 42 30C42 28.6022 42 27.9033 41.7716 27.352C41.4672 26.6169 40.8831 26.0328 40.1481 25.7284C39.5967 25.5 38.8978 25.5 37.5 25.5H34.56C34.5317 25.5 34.5176 25.5 34.5088 25.4912C34.5 25.4824 34.5 25.4683 34.5 25.44V22.5C34.5 21.1022 34.5 20.4033 34.2716 19.8519C33.9672 19.1169 33.3831 18.5328 32.6481 18.2284C32.0967 18 31.3978 18 30 18C28.6022 18 27.9033 18 27.3519 18.2284C26.6169 18.5328 26.0328 19.1169 25.7284 19.8519Z" stroke="white"/>
</svg>
