<svg width="42" height="42" viewBox="0 0 42 42" fill="none" xmlns="http://www.w3.org/2000/svg">
<path d="M37.9312 25.6635L35.2446 23.3667C35.3718 22.5874 35.4374 21.7916 35.4374 20.9959C35.4374 20.2002 35.3718 19.4045 35.2446 18.6252L37.9312 16.3284C38.1338 16.1549 38.2788 15.9239 38.347 15.666C38.4151 15.4081 38.4031 15.1355 38.3126 14.8846L38.2757 14.778C37.5361 12.7109 36.4286 10.7947 35.0067 9.12192L34.9329 9.03579C34.7604 8.83298 34.5305 8.68718 34.2735 8.61763C34.0165 8.54807 33.7445 8.55801 33.4933 8.64614L30.1587 9.83149C28.9282 8.82251 27.5542 8.02681 26.0694 7.46899L25.4255 3.98267C25.3769 3.72034 25.2497 3.479 25.0606 3.29072C24.8716 3.10244 24.6298 2.97613 24.3673 2.92856L24.2566 2.90806C22.1196 2.52251 19.872 2.52251 17.7351 2.90806L17.6243 2.92856C17.3618 2.97613 17.12 3.10244 16.931 3.29072C16.742 3.479 16.6147 3.72034 16.5661 3.98267L15.9181 7.4854C14.4452 8.04333 13.0735 8.83861 11.8575 9.8397L8.49835 8.64614C8.24719 8.55731 7.97495 8.54701 7.7178 8.61661C7.46065 8.68621 7.23077 8.83241 7.0587 9.03579L6.98487 9.12192C5.56469 10.7959 4.45739 12.7118 3.71593 14.778L3.67901 14.8846C3.49444 15.3973 3.6462 15.9715 4.06046 16.3284L6.77979 18.6499C6.65265 19.4209 6.59112 20.2084 6.59112 20.9918C6.59112 21.7793 6.65265 22.5668 6.77979 23.3338L4.06046 25.6553C3.85782 25.8288 3.71279 26.0598 3.64466 26.3177C3.57652 26.5756 3.5885 26.8482 3.67901 27.0991L3.71593 27.2057C4.45831 29.2729 5.55753 31.1801 6.98487 32.8618L7.0587 32.9479C7.23119 33.1507 7.46108 33.2965 7.71808 33.3661C7.97507 33.4356 8.24711 33.4257 8.49835 33.3375L11.8575 32.144C13.0798 33.1489 14.4456 33.9446 15.9181 34.4983L16.5661 38.001C16.6147 38.2634 16.742 38.5047 16.931 38.693C17.12 38.8813 17.3618 39.0076 17.6243 39.0551L17.7351 39.0756C19.8916 39.4632 22.1 39.4632 24.2566 39.0756L24.3673 39.0551C24.6298 39.0076 24.8716 38.8813 25.0606 38.693C25.2497 38.5047 25.3769 38.2634 25.4255 38.001L26.0694 34.5147C27.5536 33.9583 28.9354 33.1601 30.1587 32.1522L33.4933 33.3375C33.7444 33.4264 34.0167 33.4367 34.2738 33.3671C34.531 33.2975 34.7609 33.1513 34.9329 32.9479L35.0067 32.8618C36.4341 31.176 37.5333 29.2729 38.2757 27.2057L38.3126 27.0991C38.4972 26.5946 38.3454 26.0204 37.9312 25.6635V25.6635ZM32.3325 19.1092C32.4351 19.7286 32.4884 20.3643 32.4884 21C32.4884 21.6358 32.4351 22.2715 32.3325 22.8909L32.0618 24.5356L35.1257 27.1565C34.6612 28.2265 34.0749 29.2395 33.3784 30.1752L29.5722 28.8258L28.2843 29.884C27.304 30.6879 26.213 31.3196 25.0317 31.7626L23.4691 32.3491L22.7349 36.3276C21.5765 36.4588 20.4069 36.4588 19.2485 36.3276L18.5144 32.3409L16.964 31.7461C15.795 31.3032 14.7081 30.6715 13.736 29.8717L12.4482 28.8094L8.61729 30.1711C7.92003 29.2319 7.33761 28.2188 6.87003 27.1524L9.96671 24.5069L9.70011 22.8663C9.60167 22.2551 9.54835 21.6235 9.54835 21C9.54835 20.3725 9.59757 19.745 9.70011 19.1338L9.96671 17.4932L6.87003 14.8477C7.3335 13.7772 7.92003 12.7682 8.61729 11.829L12.4482 13.1907L13.736 12.1284C14.7081 11.3286 15.795 10.6969 16.964 10.254L18.5185 9.66743L19.2526 5.68071C20.4052 5.54946 21.5823 5.54946 22.739 5.68071L23.4732 9.65923L25.0359 10.2458C26.213 10.6887 27.3081 11.3204 28.2884 12.1243L29.5763 13.1825L33.3825 11.8331C34.0798 12.7723 34.6622 13.7854 35.1298 14.8518L32.0659 17.4727L32.3325 19.1092ZM20.9999 13.3711C17.0132 13.3711 13.7812 16.6032 13.7812 20.5899C13.7812 24.5766 17.0132 27.8086 20.9999 27.8086C24.9866 27.8086 28.2187 24.5766 28.2187 20.5899C28.2187 16.6032 24.9866 13.3711 20.9999 13.3711ZM24.2484 23.8383C23.8223 24.2656 23.3159 24.6044 22.7585 24.8353C22.201 25.0662 21.6033 25.1846 20.9999 25.1836C19.7735 25.1836 18.621 24.7038 17.7515 23.8383C17.3242 23.4123 16.9854 22.9059 16.7545 22.3484C16.5236 21.7909 16.4052 21.1933 16.4062 20.5899C16.4062 19.3635 16.886 18.211 17.7515 17.3415C18.621 16.4719 19.7735 15.9961 20.9999 15.9961C22.2263 15.9961 23.3788 16.4719 24.2484 17.3415C24.6756 17.7675 25.0145 18.2739 25.2453 18.8314C25.4762 19.3888 25.5946 19.9865 25.5937 20.5899C25.5937 21.8163 25.1138 22.9688 24.2484 23.8383Z" fill="#1FA8F6"/>
</svg>
