<svg width="21" height="14" viewBox="0 0 21 14" fill="none" xmlns="http://www.w3.org/2000/svg">
<path d="M0.708008 7.05019C0.708008 7.05019 4.47447 0.14502 10.7519 0.14502C17.0293 0.14502 20.7958 7.05019 20.7958 7.05019C20.7958 7.05019 17.0293 13.9554 10.7519 13.9554C4.47447 13.9554 0.708008 7.05019 0.708008 7.05019ZM10.7519 11.4444C11.9173 11.4444 13.035 10.9814 13.8591 10.1574C14.6831 9.33329 15.1461 8.21561 15.1461 7.05019C15.1461 5.88478 14.6831 4.7671 13.8591 3.94302C13.035 3.11895 11.9173 2.65599 10.7519 2.65599C9.58648 2.65599 8.4688 3.11895 7.64473 3.94302C6.82065 4.7671 6.35769 5.88478 6.35769 7.05019C6.35769 8.21561 6.82065 9.33329 7.64473 10.1574C8.4688 10.9814 9.58648 11.4444 10.7519 11.4444Z" fill="url(#paint0_linear_21_8405)"/>
<defs>
<linearGradient id="paint0_linear_21_8405" x1="10.7519" y1="0.14502" x2="10.7519" y2="13.9554" gradientUnits="userSpaceOnUse">
<stop stop-color="#292739"/>
<stop offset="1"/>
</linearGradient>
</defs>
</svg>
