<svg width="40" height="40" viewBox="0 0 40 40" fill="none" xmlns="http://www.w3.org/2000/svg">
<g clip-path="url(#clip0_88_3622)">
<path d="M19.1167 18.5C21.5007 18.5 23.4334 16.2912 23.4334 13.5666C23.4334 10.842 21.5007 8.6333 19.1167 8.6333C16.7327 8.6333 14.8 10.842 14.8 13.5666C14.8 16.2912 16.7327 18.5 19.1167 18.5Z" stroke="#1FA8F6" stroke-width="2" stroke-miterlimit="10"/>
<path d="M12.95 26.5167V24.05C12.95 22.3474 14.3307 20.9667 16.0333 20.9667H22.2C23.9026 20.9667 25.2833 22.3474 25.2833 24.05V26.5167" stroke="#1FA8F6" stroke-width="2" stroke-miterlimit="10"/>
<path d="M33.9167 32.0667H32.6833V33.3H33.9167V32.0667Z" fill="#1FA8F6"/>
<path d="M35.7668 29.6H34.5334V30.8333H35.7668V29.6Z" fill="#1FA8F6"/>
<path d="M31.4499 33.9166H30.2166V35.15H31.4499V33.9166Z" fill="#1FA8F6"/>
<path d="M13.7351 7.39934C15.3618 6.60939 17.1872 6.16663 19.1167 6.16663C25.9284 6.16663 31.4501 11.6883 31.4501 18.5C31.4501 25.3117 25.9284 30.8333 19.1167 30.8333C14.0699 30.8333 9.73168 27.8048 7.82248 23.4629L9.48995 22.7679C9.71133 22.6748 9.86673 22.4553 9.86673 22.2C9.86673 22.002 9.773 21.8256 9.62808 21.7128L4.08117 17.3986C3.97572 17.316 3.84375 17.2666 3.70007 17.2666C3.41147 17.2666 3.1685 17.4652 3.1019 17.7334L1.2519 25.1334C1.23957 25.1809 1.2334 25.2315 1.2334 25.2833C1.2334 25.6237 1.50967 25.9 1.85007 25.9C1.93517 25.9 2.01657 25.8827 2.08995 25.8512L3.83573 25.1236C6.39736 31.0238 12.2748 35.15 19.1167 35.15C28.3125 35.15 35.7667 27.6957 35.7667 18.5C35.7667 14.3473 34.2466 10.5499 31.7325 7.63368" stroke="#1FA8F6" stroke-width="2" stroke-miterlimit="10"/>
<path d="M11.2166 9.02859C11.5317 8.76528 11.8604 8.51738 12.2008 8.28674" stroke="#1FA8F6" stroke-width="2" stroke-miterlimit="10"/>
<path d="M8.87695 11.623C9.11684 11.2665 9.37522 10.923 9.64964 10.5944" stroke="#1FA8F6" stroke-width="2" stroke-miterlimit="10"/>
<path d="M6.37817 7.77799C9.43191 4.15323 14.0057 1.84998 19.1167 1.84998C23.2551 1.84998 27.0402 3.35958 29.9527 5.85831" stroke="#1FA8F6" stroke-width="2" stroke-miterlimit="10"/>
<path d="M4.5769 10.3816C4.77177 10.0331 4.97897 9.69213 5.19789 9.35913" stroke="#1FA8F6" stroke-width="2" stroke-miterlimit="10"/>
<path d="M3.44653 12.8581C3.57295 12.5073 3.71108 12.1613 3.8597 11.8215" stroke="#1FA8F6" stroke-width="2" stroke-miterlimit="10"/>
</g>
<defs>
<clipPath id="clip0_88_3622">
<rect width="37" height="37" fill="white"/>
</clipPath>
</defs>
</svg>
