<svg width="40" height="40" viewBox="0 0 40 40" fill="none" xmlns="http://www.w3.org/2000/svg">
<g clip-path="url(#clip0_88_3201)">
<path d="M19.6335 19C22.082 19 24.0669 16.7316 24.0669 13.9334C24.0669 11.1351 22.082 8.8667 19.6335 8.8667C17.1851 8.8667 15.2002 11.1351 15.2002 13.9334C15.2002 16.7316 17.1851 19 19.6335 19Z" stroke="#CDD1E0" stroke-width="2" stroke-miterlimit="10"/>
<path d="M13.2998 27.2333V24.7C13.2998 22.9514 14.7178 21.5333 16.4665 21.5333H22.7998C24.5484 21.5333 25.9665 22.9514 25.9665 24.7V27.2333" stroke="#CDD1E0" stroke-width="2" stroke-miterlimit="10"/>
<path d="M34.8336 32.9333H33.5669V34.2H34.8336V32.9333Z" fill="#CDD1E0"/>
<path d="M36.7335 30.4H35.4668V31.6667H36.7335V30.4Z" fill="#CDD1E0"/>
<path d="M32.2999 34.8334H31.0332V36.1H32.2999V34.8334Z" fill="#CDD1E0"/>
<path d="M14.1062 7.59941C15.7769 6.78811 17.6516 6.33337 19.6333 6.33337C26.6291 6.33337 32.2999 12.0042 32.2999 19C32.2999 25.9958 26.6291 31.6667 19.6333 31.6667C14.4501 31.6667 9.99457 28.5564 8.03377 24.0971L9.7463 23.3833C9.97367 23.2877 10.1333 23.0622 10.1333 22.8C10.1333 22.5967 10.037 22.4156 9.88817 22.2997L4.19133 17.8689C4.08303 17.784 3.9475 17.7334 3.79993 17.7334C3.50353 17.7334 3.254 17.9373 3.1856 18.2128L1.2856 25.8128C1.27293 25.8616 1.2666 25.9135 1.2666 25.9667C1.2666 26.3163 1.55033 26.6 1.89993 26.6C1.98733 26.6 2.07093 26.5823 2.1463 26.55L3.93927 25.8027C6.57013 31.8624 12.6064 36.1 19.6333 36.1C29.0775 36.1 36.7333 28.4443 36.7333 19C36.7333 14.7352 35.1721 10.8351 32.59 7.84007" stroke="#CDD1E0" stroke-width="2" stroke-miterlimit="10"/>
<path d="M11.5195 9.27264C11.8432 9.00221 12.1807 8.74761 12.5303 8.51074" stroke="#CDD1E0" stroke-width="2" stroke-miterlimit="10"/>
<path d="M9.1167 11.9371C9.36307 11.5711 9.62843 11.2183 9.91027 10.8807" stroke="#CDD1E0" stroke-width="2" stroke-miterlimit="10"/>
<path d="M6.55029 7.98826C9.68656 4.26552 14.384 1.90002 19.6331 1.90002C23.8834 1.90002 27.7708 3.45042 30.762 6.01669" stroke="#CDD1E0" stroke-width="2" stroke-miterlimit="10"/>
<path d="M4.70068 10.6622C4.90082 10.3044 5.11362 9.95418 5.33845 9.61218" stroke="#CDD1E0" stroke-width="2" stroke-miterlimit="10"/>
<path d="M3.53955 13.2056C3.66938 12.8453 3.81125 12.49 3.96388 12.141" stroke="#CDD1E0" stroke-width="2" stroke-miterlimit="10"/>
</g>
<defs>
<clipPath id="clip0_88_3201">
<rect width="38" height="38" fill="white"/>
</clipPath>
</defs>
</svg>
